<!DOCTYPE svg PUBLIC "-//W3C//DTD SVG 1.1//EN" "http://www.w3.org/Graphics/SVG/1.1/DTD/svg11.dtd">
<!-- Uploaded to: SVG Repo, www.svgrepo.com, Transformed by: SVG Repo Mixer Tools -->
<svg version="1.1" id="Icons" xmlns="http://www.w3.org/2000/svg" xmlns:xlink="http://www.w3.org/1999/xlink" viewBox="-12.8 -12.8 57.60 57.60" xml:space="preserve" width="800px" height="800px" fill="#f2f2f2" stroke="#f2f2f2">
<g id="SVGRepo_bgCarrier" stroke-width="0"/>
<g id="SVGRepo_tracerCarrier" stroke-linecap="round" stroke-linejoin="round" stroke="#CCCCCC" stroke-width="0.128"/>
<g id="SVGRepo_iconCarrier"> <style type="text/css"> .st0{fill:none;stroke:#f2f2f2;stroke-width:2.2399999999999998;stroke-linecap:round;stroke-linejoin:round;stroke-miterlimit:10;} </style> <path class="st0" d="M28.6,13c-1.6,0.2-3.1-0.5-4-2c-0.8-1.4-0.7-3.2,0.3-4.4c-1.5-1.4-3.3-2.4-5.2-3C19.1,5,17.7,6,16,6 s-3.1-1-3.7-2.5c-2,0.6-3.8,1.6-5.2,3C8,7.8,8.2,9.6,7.3,11c-0.8,1.4-2.4,2.2-4,2c-0.2,1-0.4,2-0.4,3c0,1,0.1,2.1,0.4,3 c1.6-0.2,3.1,0.5,4,2c0.8,1.4,0.7,3.2-0.3,4.4c1.5,1.4,3.3,2.4,5.2,3c0.6-1.4,2-2.5,3.7-2.5s3.1,1,3.7,2.5c2-0.6,3.8-1.6,5.2-3 c-0.9-1.2-1.1-3-0.3-4.4c0.8-1.4,2.4-2.2,4-2c0.2-1,0.4-2,0.4-3C29,15,28.9,13.9,28.6,13z"/> <circle class="st0" cx="16" cy="16" r="3"/> </g>
</svg>