<!DOCTYPE svg PUBLIC "-//W3C//DTD SVG 1.1//EN" "http://www.w3.org/Graphics/SVG/1.1/DTD/svg11.dtd">
<!-- Uploaded to: SVG Repo, www.svgrepo.com, Transformed by: SVG Repo Mixer Tools -->
<svg fill="#e2e2e2" width="800px" height="800px" viewBox="0 0 32 32" enable-background="new 0 0 32 32" id="Glyph" version="1.1" xml:space="preserve" xmlns="http://www.w3.org/2000/svg" xmlns:xlink="http://www.w3.org/1999/xlink" stroke="#e2e2e2" stroke-width="0.00032">
<g id="SVGRepo_bgCarrier" stroke-width="0"/>
<g id="SVGRepo_tracerCarrier" stroke-linecap="round" stroke-linejoin="round"/>
<g id="SVGRepo_iconCarrier">
<path d="M16,13c-1.654,0-3,1.346-3,3s1.346,3,3,3s3-1.346,3-3S17.654,13,16,13z" id="XMLID_287_"/>
<path d="M6,13c-1.654,0-3,1.346-3,3s1.346,3,3,3s3-1.346,3-3S7.654,13,6,13z" id="XMLID_289_"/>
<path d="M26,13c-1.654,0-3,1.346-3,3s1.346,3,3,3s3-1.346,3-3S27.654,13,26,13z" id="XMLID_291_"/>
</g>
</svg>